<svg xmlns="http://www.w3.org/2000/svg" width="1200" height="120" viewBox="0 0 1200 120" preserveAspectRatio="none">
  <path fill="#6366f1" opacity=".35" d="M0,120 L0,60.0 L40,65.7 L80,70.4 L120,73.3 L160,73.9 L200,72.1 L240,68.2 L280,62.9 L320,57.1 L360,51.8 L400,47.9 L440,46.1 L480,46.7 L520,49.6 L560,54.3 L600,60.0 L640,65.7 L680,70.4 L720,73.3 L760,73.9 L800,72.1 L840,68.2 L880,62.9 L920,57.1 L960,51.8 L1000,47.9 L1040,46.1 L1080,46.7 L1120,49.6 L1160,54.3 L1200,60.0 L1200,120 Z">
    <animate attributeName="d" dur="9s" repeatCount="indefinite" values="M0,120 L0,60.0 L40,65.7 L80,70.4 L120,73.3 L160,73.9 L200,72.1 L240,68.2 L280,62.9 L320,57.1 L360,51.8 L400,47.9 L440,46.1 L480,46.7 L520,49.6 L560,54.3 L600,60.0 L640,65.7 L680,70.4 L720,73.3 L760,73.9 L800,72.1 L840,68.2 L880,62.9 L920,57.1 L960,51.8 L1000,47.9 L1040,46.1 L1080,46.7 L1120,49.6 L1160,54.3 L1200,60.0 L1200,120 Z;M0,120 L0,60.0 L40,54.3 L80,49.6 L120,46.7 L160,46.1 L200,47.9 L240,51.8 L280,57.1 L320,62.9 L360,68.2 L400,72.1 L440,73.9 L480,73.3 L520,70.4 L560,65.7 L600,60.0 L640,54.3 L680,49.6 L720,46.7 L760,46.1 L800,47.9 L840,51.8 L880,57.1 L920,62.9 L960,68.2 L1000,72.1 L1040,73.9 L1080,73.3 L1120,70.4 L1160,65.7 L1200,60.0 L1200,120 Z;M0,120 L0,60.0 L40,65.7 L80,70.4 L120,73.3 L160,73.9 L200,72.1 L240,68.2 L280,62.9 L320,57.1 L360,51.8 L400,47.9 L440,46.1 L480,46.7 L520,49.6 L560,54.3 L600,60.0 L640,65.7 L680,70.4 L720,73.3 L760,73.9 L800,72.1 L840,68.2 L880,62.9 L920,57.1 L960,51.8 L1000,47.9 L1040,46.1 L1080,46.7 L1120,49.6 L1160,54.3 L1200,60.0 L1200,120 Z"/></path>
  <path fill="#14b8a6" opacity=".45" d="M0,120 L0,85.0 L40,84.4 L80,82.2 L120,78.8 L160,74.7 L200,70.6 L240,67.3 L280,65.4 L320,65.1 L360,66.5 L400,69.4 L440,73.3 L480,77.4 L520,81.1 L560,83.8 L600,85.0 L640,84.4 L680,82.2 L720,78.8 L760,74.7 L800,70.6 L840,67.3 L880,65.4 L920,65.1 L960,66.5 L1000,69.4 L1040,73.3 L1080,77.4 L1120,81.1 L1160,83.8 L1200,85.0 L1200,120 Z">
    <animate attributeName="d" dur="7s" repeatCount="indefinite" values="M0,120 L0,85.0 L40,84.4 L80,82.2 L120,78.8 L160,74.7 L200,70.6 L240,67.3 L280,65.4 L320,65.1 L360,66.5 L400,69.4 L440,73.3 L480,77.4 L520,81.1 L560,83.8 L600,85.0 L640,84.4 L680,82.2 L720,78.8 L760,74.7 L800,70.6 L840,67.3 L880,65.4 L920,65.1 L960,66.5 L1000,69.4 L1040,73.3 L1080,77.4 L1120,81.1 L1160,83.8 L1200,85.0 L1200,120 Z;M0,120 L0,65.1 L40,65.5 L80,67.5 L120,70.9 L160,74.9 L200,79.0 L240,82.4 L280,84.5 L320,85.0 L360,83.7 L400,80.9 L440,77.2 L480,73.0 L520,69.2 L560,66.4 L600,65.1 L640,65.5 L680,67.5 L720,70.9 L760,74.9 L800,79.0 L840,82.4 L880,84.5 L920,85.0 L960,83.7 L1000,80.9 L1040,77.2 L1080,73.0 L1120,69.2 L1160,66.4 L1200,65.1 L1200,120 Z;M0,120 L0,85.0 L40,84.4 L80,82.2 L120,78.8 L160,74.7 L200,70.6 L240,67.3 L280,65.4 L320,65.1 L360,66.5 L400,69.4 L440,73.3 L480,77.4 L520,81.1 L560,83.8 L600,85.0 L640,84.4 L680,82.2 L720,78.8 L760,74.7 L800,70.6 L840,67.3 L880,65.4 L920,65.1 L960,66.5 L1000,69.4 L1040,73.3 L1080,77.4 L1120,81.1 L1160,83.8 L1200,85.0 L1200,120 Z"/></path>
  <path fill="#0b1222" d="M0,120 L0,95.9 L40,97.4 L80,98.0 L120,97.6 L160,96.2 L200,94.0 L240,91.6 L280,89.2 L320,87.3 L360,86.2 L400,86.1 L440,87.0 L480,88.8 L520,91.2 L560,93.7 L600,95.9 L640,97.4 L680,98.0 L720,97.6 L760,96.2 L800,94.0 L840,91.6 L880,89.2 L920,87.3 L960,86.2 L1000,86.1 L1040,87.0 L1080,88.8 L1120,91.2 L1160,93.7 L1200,95.9 L1200,120 Z">
    <animate attributeName="d" dur="11s" repeatCount="indefinite" values="M0,120 L0,95.9 L40,97.4 L80,98.0 L120,97.6 L160,96.2 L200,94.0 L240,91.6 L280,89.2 L320,87.3 L360,86.2 L400,86.1 L440,87.0 L480,88.8 L520,91.2 L560,93.7 L600,95.9 L640,97.4 L680,98.0 L720,97.6 L760,96.2 L800,94.0 L840,91.6 L880,89.2 L920,87.3 L960,86.2 L1000,86.1 L1040,87.0 L1080,88.8 L1120,91.2 L1160,93.7 L1200,95.9 L1200,120 Z;M0,120 L0,88.3 L40,86.7 L80,86.0 L120,86.4 L160,87.7 L200,89.7 L240,92.2 L280,94.6 L320,96.6 L360,97.8 L400,97.9 L440,97.1 L480,95.4 L520,93.1 L560,90.6 L600,88.3 L640,86.7 L680,86.0 L720,86.4 L760,87.7 L800,89.7 L840,92.2 L880,94.6 L920,96.6 L960,97.8 L1000,97.9 L1040,97.1 L1080,95.4 L1120,93.1 L1160,90.6 L1200,88.3 L1200,120 Z;M0,120 L0,95.9 L40,97.4 L80,98.0 L120,97.6 L160,96.2 L200,94.0 L240,91.6 L280,89.2 L320,87.3 L360,86.2 L400,86.1 L440,87.0 L480,88.8 L520,91.2 L560,93.7 L600,95.9 L640,97.4 L680,98.0 L720,97.6 L760,96.2 L800,94.0 L840,91.6 L880,89.2 L920,87.3 L960,86.2 L1000,86.1 L1040,87.0 L1080,88.8 L1120,91.2 L1160,93.7 L1200,95.9 L1200,120 Z"/></path>
</svg>
